PathFileType	4	(X/Y/Z)	c:\Git\powerlifing_model_clean\simulations\HC835B\Session1\HC835B_OGR_0001\marker_experimental.trc
DataRate	CameraRate	NumFrames	NumMarkers	Units	OrigDataRate	OrigDataStartFrame	OrigNumFrames
240.000000	240.000000	4	38	mm	240.000000	79	213
Frame#	Time	RPSI			LPSI			RASI			LASI			RTH1			RTH2			RTH3			RTH4			RSK1			RSK2			RSK3			RSK4			RCAL1			RCAL2			RCAL3			RST			RPT			RTN			RFMB			RSMB			RVMB			RFMH			RSMH			RVMH			RPM			LTH1			LTH2			LTH3			LTH4			LSK1			LSK2			LSK3			LSK4			LCAL1			LCAL2			LCAL3			LFMH			LVMH			
		X1	Y1	Z1	X2	Y2	Z2	X3	Y3	Z3	X4	Y4	Z4	X5	Y5	Z5	X6	Y6	Z6	X7	Y7	Z7	X8	Y8	Z8	X9	Y9	Z9	X10	Y10	Z10	X11	Y11	Z11	X12	Y12	Z12	X13	Y13	Z13	X14	Y14	Z14	X15	Y15	Z15	X16	Y16	Z16	X17	Y17	Z17	X18	Y18	Z18	X19	Y19	Z19	X20	Y20	Z20	X21	Y21	Z21	X22	Y22	Z22	X23	Y23	Z23	X24	Y24	Z24	X25	Y25	Z25	X26	Y26	Z26	X27	Y27	Z27	X28	Y28	Z28	X29	Y29	Z29	X30	Y30	Z30	X31	Y31	Z31	X32	Y32	Z32	X33	Y33	Z33	X34	Y34	Z34	X35	Y35	Z35	X36	Y36	Z36	X37	Y37	Z37	X38	Y38	Z38	

80	0.3291666666666667	520.2059326171876	1187.696899414063	-741.2137451171876	412.1124877929689	1187.502319335938	-730.3978881835939	572.6328735351564	1089.871704101563	-928.409851074219	338.6168823242188	1111.350708007813	-919.8081665039065	651.3675537109376	853.0655517578127	-746.2668457031251	637.8195190429689	817.8551025390627	-794.422790527344	639.0811157226564	770.5054931640627	-732.2742309570314	615.2136230468751	738.0491943359376	-775.0922851562502	604.3365478515626	417.8572998046876	-434.7973937988282	607.4559326171876	373.9954833984376	-478.2159729003907	601.0780639648439	360.9483032226563	-419.1874389648439	593.4155273437501	319.6775512695313	-461.7742004394532	544.2549438476564	284.9779968261719	-309.4274597167969	501.6738281250001	266.0212402343751	-293.1081237792969	562.8269042968751	254.7329559326172	-276.0716857910157	492.8129272460939	221.1440429687501	-348.8246765136719	586.6538085937501	207.6110382080079	-313.0108032226563	511.5274658203126	184.94140625	-391.6023559570314	506.8318786621095	148.6400909423828	-393.9443359375001	559.2233276367189	141.825668334961	-406.6713256835939	586.0098876953126	154.7411499023438	-315.2996215820313	490.682342529297	88.99949645996095	-399.5901794433595	544.1890258789064	74.31869506835939	-407.326141357422	592.4101562500001	83.42676544189455	-348.8222045898438	528.3560180664064	33.06198501586915	-440.1836547851564	270.1241455078126	854.2547607421877	-935.5192871093752	270.9236145019532	869.753845214844	-994.580749511719	276.3516235351563	788.6871337890627	-989.9490966796877	293.6443786621094	805.1665039062502	-1047.074829101563	323.3711547851563	392.6749572753907	-890.1690673828127	316.5815124511719	358.7364807128907	-930.250671386719	326.7479248046876	336.1104736328126	-886.830993652344	336.0863647460938	304.0015258789063	-931.7772216796877	387.4205627441407	215.4862976074219	-782.2154541015627	360.4169616699219	176.224349975586	-772.998962402344	418.9169311523439	180.2681884765625	-776.9665527343752	435.4600219726564	120.5555114746094	-986.9316406250002	326.4442749023438	99.80832672119143	-947.1965942382815	
81	0.3333333333333333	519.7396240234376	1189.995727539063	-756.3198242187501	411.6794738769532	1189.854858398438	-745.5342407226564	571.7579956054689	1091.314453125	-943.0964965820315	338.0076904296876	1114.405517578125	-934.880065917969	650.7603149414064	855.3264770507815	-758.6737670898439	638.5293579101564	819.9938964843752	-806.8914184570315	639.3533325195314	772.950134277344	-744.5284423828126	616.4527587890626	740.0227661132814	-787.5906372070315	606.0910034179689	422.1129150390626	-445.7081909179689	608.0277099609376	377.5535583496094	-488.5411071777345	602.7130126953126	365.5310668945313	-429.1917114257814	593.8296508789064	323.6843566894532	-470.9996337890626	546.2402343750001	292.9165954589844	-318.5641784667969	503.8221740722657	274.4421997070313	-301.2868347167969	565.1105957031251	263.8977355957032	-284.2564086914063	494.5203857421876	227.7147064208985	-355.4667358398438	588.7657470703126	215.5724182128907	-319.9340209960938	512.7703247070314	190.0501403808594	-397.0778808593751	508.5449829101564	153.7719116210938	-398.7063598632814	560.5191040039064	146.6607360839844	-410.8303833007814	588.3262939453126	162.7667083740235	-320.6537475585938	493.2777099609376	93.20384979248048	-402.6730346679689	546.6419677734376	79.34509277343751	-410.1404113769532	594.0618286132814	90.00411224365236	-352.1215515136719	531.7981567382814	32.29541015625001	-439.6723937988282	271.1155090332032	854.7969360351565	-948.7844238281252	271.6714477539063	869.9483642578127	-1007.992309570313	277.5181579589844	788.789489746094	-1002.754821777344	294.5128784179688	804.9487915039065	-1060.094116210938	323.6857910156251	386.3490600585939	-911.466979980469	318.0304870605469	353.5754699707032	-953.2993774414065	326.8099365234376	329.7599487304688	-910.187194824219	336.2803649902344	299.2411804199219	-956.5404052734377	387.4720764160157	204.4715270996094	-810.4124755859377	360.3464355468751	164.7917175292969	-803.0034179687502	418.883270263672	168.9558563232422	-806.6896972656252	435.8895874023439	118.6227035522461	-1019.135986328125	326.8151855468751	96.36090087890628	-980.5650634765627	
82	0.3375	519.3031005859376	1192.240356445313	-771.4329833984377	411.1743469238282	1191.884643554688	-760.7754516601564	570.9564819335939	1092.756103515625	-957.7647094726565	337.4012756347657	1117.28955078125	-950.051696777344	650.1525268554689	857.748474121094	-771.2083129882815	639.2512817382814	822.0679931640627	-819.6291503906252	639.5348510742189	775.1551513671877	-757.1464233398439	617.6224365234376	741.9226074218751	-800.4863891601565	607.3176879882814	426.0677185058595	-456.7331542968751	609.1567993164064	381.5757141113282	-498.9956970214845	604.2826538085939	370.0966491699219	-439.3333435058595	593.4504394531251	327.5014648437501	-480.3204040527345	547.8212890625001	300.9006958007813	-327.6775817871094	505.5791320800782	282.7869262695313	-309.5354919433594	567.2341918945314	273.4158020019532	-292.4181213378907	496.1220092773439	234.1985931396485	-362.0197448730469	590.7051391601564	223.7867889404297	-326.8356018066407	514.0557250976564	195.3095703125001	-403.1039123535157	510.084442138672	158.8843688964844	-402.7926025390626	562.3412475585939	151.9255523681641	-416.0125427246095	591.6487426757814	171.4026184082032	-326.2137756347657	494.3565979003907	96.72959899902347	-403.9398803710939	549.0849609375001	84.43788909912111	-412.9921875000001	595.9163208007814	97.02798461914065	-355.1739807128907	534.3942871093751	34.19405746459962	-438.6749877929689	272.0973510742188	855.104675292969	-961.878356933594	272.5173034667969	869.7288818359377	-1021.15380859375	278.6766052246094	788.6669921875002	-1015.37646484375	295.5129089355469	804.517272949219	-1072.91748046875	320.9574890136719	381.2063903808594	-931.8154296875002	318.1308288574219	348.6771240234376	-976.001647949219	326.8971252441407	323.5228271484376	-933.6975708007815	336.6511840820313	294.7791748046876	-981.1391601562502	387.9499816894532	193.7537841796876	-839.3167114257815	360.1557617187501	153.7192840576172	-833.263366699219	418.8063049316407	158.1259460449219	-836.642028808594	436.4646606445314	117.2724151611328	-1051.013916015625	327.2261962890626	93.4754104614258	-1013.767700195313	
83	0.3416666666666667	518.9381103515626	1194.389282226563	-786.5279541015627	410.830780029297	1193.911376953125	-775.8449707031252	570.3042602539064	1094.195922851563	-972.4168701171877	336.9217834472657	1119.890380859375	-965.195495605469	649.8168334960939	859.6975097656252	-784.188415527344	639.8184814453126	823.8804931640627	-832.647888183594	639.5139770507814	777.1137695312502	-770.1067504882815	618.5246582031251	743.6033935546876	-813.7261962890627	608.8634033203126	430.2633666992189	-467.9918518066407	609.5003662109376	384.9968261718751	-509.4340820312501	605.6463012695314	374.6623840332032	-449.5112915039064	593.5959472656251	331.4719238281251	-489.4915466308595	548.9342041015626	308.9421691894532	-336.8133850097657	506.9869384765626	291.1981201171876	-317.8838195800782	568.6074218750001	282.5502319335938	-300.8068542480469	497.4081115722657	240.7030944824219	-368.5630493164063	592.4656982421876	232.2934112548829	-333.7874755859376	515.2556152343751	200.5049438476563	-408.2857971191407	511.7209472656251	164.0843963623047	-406.9070129394532	564.4548950195314	157.3141174316407	-420.9034729003907	593.3991088867189	179.7315979003907	-331.3268127441407	496.848358154297	102.2195739746094	-406.3159790039064	551.3225708007814	89.64441680908205	-414.8975830078126	598.2265625000001	104.5732345581055	-358.0644226074219	537.0298461914064	38.41717147827149	-438.7825927734376	273.0535888671876	855.1134033203127	-974.8082275390627	273.4080505371094	869.233093261719	-1034.229614257813	279.7565917968751	788.3003540039065	-1027.81396484375	296.5901794433594	803.708679199219	-1085.376220703125	320.7564086914063	375.0433654785157	-953.2877197265627	318.2619323730469	343.8240356445313	-998.716491699219	327.2728881835938	317.1287231445313	-957.5891113281252	336.8448181152344	290.5120239257813	-1005.79443359375	386.7380371093751	182.7396697998047	-868.1597290039065	359.9852600097657	143.349853515625	-863.7105712890627	418.7244262695314	147.7722778320313	-866.7084960937502	437.1017150878907	116.3458557128907	-1082.587524414063	327.7165222167969	91.14650726318361	-1046.847290039063	
